<?xml version="1.0" encoding="UTF-8"?>
<svg version="1.1" xmlns="http://www.w3.org/2000/svg" width="1024" height="1024">
<path d="M0 0 C1.79567251 -0.01337005 1.79567251 -0.01337005 3.62762123 -0.0270102 C6.9287865 -0.04843408 10.22948299 -0.05657877 13.53068364 -0.0588026 C17.09930978 -0.06438517 20.66783646 -0.08704165 24.23640442 -0.10720825 C32.02760286 -0.14782568 39.81875472 -0.16600943 47.61004138 -0.17924023 C52.47851265 -0.18754582 57.34696621 -0.20026076 62.21542549 -0.21375275 C75.70694446 -0.25030552 89.19844934 -0.28121355 102.69001675 -0.29137802 C103.98328433 -0.29236607 103.98328433 -0.29236607 105.30267853 -0.29337408 C106.1668508 -0.29402891 107.03102306 -0.29468374 107.92138237 -0.29535842 C109.67236547 -0.29668879 111.42334857 -0.29802848 113.17433167 -0.29937744 C114.47713793 -0.30037388 114.47713793 -0.30037388 115.80626351 -0.30139044 C129.88647856 -0.31324021 143.96622841 -0.36563057 158.04626369 -0.43545601 C172.51755422 -0.50664045 186.98861131 -0.54398525 201.46007973 -0.54748178 C209.57930106 -0.55022882 217.69791519 -0.56740387 225.81696892 -0.62194061 C232.72818293 -0.66820297 239.63860188 -0.68347129 246.54994135 -0.6587263 C250.07378081 -0.64702767 253.59602022 -0.64968047 257.11966133 -0.69189835 C260.94585611 -0.73732108 264.76981582 -0.71245644 268.59619141 -0.68115234 C269.70097176 -0.70532156 270.80575212 -0.72949077 271.94401067 -0.75439239 C279.63325726 -0.60751941 283.34100855 1.6772042 288.71352345 7.13046432 C289.42238459 7.88644857 290.13124574 8.64243282 290.86158752 9.42132568 C292.18903005 10.66364827 293.52444708 11.89760251 294.87330627 13.11663818 C296.09942199 14.25894999 297.32470026 15.40216143 298.54908752 16.54632568 C299.16074768 17.11480225 299.77240784 17.68327881 300.40260315 18.26898193 C303.51432357 21.17325433 306.57340114 24.1155007 309.57252502 27.13616943 C311.90381974 29.48347444 314.26727478 31.7258981 316.79908752 33.85882568 C319.607351 36.27750347 322.26129345 38.78032251 324.86158752 41.42132568 C327.44167968 44.04173178 330.07262359 46.5245598 332.86158752 48.92132568 C336.2894135 51.86711363 339.4729357 54.98307915 342.61158752 58.23382568 C345.23689125 60.78620431 347.98815427 63.16456913 350.75172424 65.56536865 C354.04644973 68.4635986 357.23423402 71.47118626 360.42408752 74.48382568 C361.83148811 75.80820545 363.23904378 77.13242042 364.64674377 78.45648193 C365.70272766 79.45059082 365.70272766 79.45059082 366.78004456 80.46478271 C369.9656785 83.45911423 373.16343852 86.44037423 376.36158752 89.42132568 C382.15315746 94.82329059 387.94148836 100.2287167 393.71192932 105.65325928 C397.30884333 109.03429689 400.91802773 112.40084939 404.54518127 115.74945068 C405.31813538 116.4669751 406.09108948 117.18449951 406.88746643 117.92376709 C408.37627373 119.30575414 409.86924035 120.68327822 411.36695862 122.05560303 C412.04194397 122.68418213 412.71692932 123.31276123 413.41236877 123.96038818 C414.30435974 124.78337402 414.30435974 124.78337402 415.21437073 125.62298584 C418.93047325 129.68002026 420.23660809 132.90227031 420.23631763 138.39662457 C420.24352418 139.60218429 420.25073072 140.80774402 420.25815564 142.04983586 C420.25097881 143.38417246 420.24351991 144.71850757 420.23580933 146.05284119 C420.23854996 147.47308869 420.24260207 148.89333417 420.24785298 150.31357461 C420.25844888 154.21659422 420.25030494 158.11938511 420.23910248 162.02239478 C420.23026754 166.23181827 420.23870211 170.4412116 420.2449646 174.65063477 C420.25445999 182.89841635 420.24784557 191.14611053 420.23570166 199.39388563 C420.22208414 209.00043866 420.22371941 218.60697083 420.22583499 228.21353105 C420.22902618 245.35874161 420.21735141 262.50391065 420.19776917 279.64910889 C420.17877937 296.27998114 420.17167759 312.9108047 420.17726135 329.54168701 C420.18332327 347.65027337 420.18313336 365.7588383 420.17177552 383.86742288 C420.17056824 385.79976642 420.16936226 387.73210996 420.16815758 389.66445351 C420.16725227 391.09055748 420.16725227 391.09055748 420.16632867 392.54547163 C420.16245301 399.2384029 420.16284185 405.93132619 420.16474342 412.62425804 C420.16686872 420.78700884 420.16161636 428.94971705 420.14712987 437.11245587 C420.13990032 441.27567117 420.13579648 445.43882454 420.14037323 449.60204506 C420.14446537 453.41737304 420.13923965 457.23257344 420.12674715 461.04788212 C420.1224568 463.07328437 420.12789248 465.09870012 420.13373643 467.12409848 C420.08173805 477.9888184 419.59789717 489.25145775 411.84596252 497.58929443 C403.61703506 505.27242569 396.14612762 507.54340142 384.90428543 507.54996014 C384.22500886 507.55171317 383.54573228 507.55346621 382.84587157 507.55527237 C380.57116212 507.55992192 378.29651689 507.55746957 376.02180481 507.55503845 C374.37383273 507.55690695 372.72586109 507.55920781 371.07789016 507.56190377 C366.55011781 507.56802339 362.02236392 507.56788799 357.49458838 507.5667094 C352.61101846 507.56650543 347.72745448 507.57202378 342.84388733 507.57676697 C333.27612457 507.58507508 323.70836797 507.58782189 314.1406019 507.58837935 C306.36336923 507.58885445 298.58613859 507.59090892 290.80890656 507.59407997 C268.75999968 507.60288714 246.71109768 507.60749927 224.66218904 507.6067495 C223.47341046 507.60670954 222.28463188 507.60666958 221.05982971 507.60662842 C219.86959992 507.60658754 218.67937012 507.60654666 217.45307276 507.60650454 C198.16408653 507.60609809 178.87511982 507.61566701 159.58613923 507.62976678 C139.78130227 507.64412942 119.97647483 507.65103702 100.17163253 507.65017301 C89.05236852 507.64984099 77.93312498 507.6525902 66.81386566 507.66335106 C57.34643656 507.67245458 47.87903721 507.67463253 38.41160563 507.66784164 C33.58206877 507.66457564 28.75258899 507.66452266 23.92305756 507.67319489 C19.49899436 507.68105725 15.07503351 507.67963111 10.65097281 507.67091075 C9.05340696 507.66937519 7.45583349 507.67119407 5.85827664 507.67677083 C-17.53766339 507.75301023 -17.53766339 507.75301023 -27.13841248 499.42132568 C-35.56381429 490.35206128 -37.30252519 480.46510022 -37.26704693 468.46550083 C-37.26879997 467.70257503 -37.270553 466.93964924 -37.27235916 466.15360448 C-37.27699768 463.60639761 -37.27455923 461.05924837 -37.27212524 458.51203918 C-37.27399429 456.66363794 -37.27629537 454.81523709 -37.27899057 452.96683687 C-37.28510322 447.89437761 -37.2849756 442.82193484 -37.28379619 437.74947274 C-37.28359205 432.27631319 -37.28911212 426.80315892 -37.29385376 421.33000183 C-37.30215752 410.61047614 -37.30490846 399.89095595 -37.30546614 389.17142732 C-37.30594135 380.45935587 -37.30799634 371.74728625 -37.31116676 363.03521538 C-37.31997193 338.33685805 -37.32459233 313.63850451 -37.32383629 288.94014568 C-37.32381634 288.2747482 -37.3237964 287.60935073 -37.32377585 286.92378969 C-37.32373541 285.57819534 -37.32369361 284.23260098 -37.32365046 282.88700663 C-37.32303757 261.94702336 -37.33054759 241.00705628 -37.34422302 220.06707764 C-37.3595853 196.53455877 -37.36817652 173.00204796 -37.3672598 149.46952337 C-37.36692765 137.01172395 -37.36968294 124.55394278 -37.38043785 112.09614754 C-37.38953417 101.49164559 -37.39172518 90.88717019 -37.38492843 80.28266603 C-37.38165908 74.87198994 -37.38162157 69.46136479 -37.39028168 64.05069351 C-37.398129 59.09692838 -37.39673333 54.14325477 -37.38799755 49.18949192 C-37.38645868 47.39819609 -37.38829323 45.60689349 -37.39385762 43.81560565 C-37.46487368 19.33105855 -37.46487368 19.33105855 -28.12669373 9.24945068 C-19.64905172 1.14168835 -11.4547029 -0.02689755 0 0 Z M278.86158752 25.42132568 C278.7919722 36.88727959 278.73871765 48.35318293 278.70615101 59.81930542 C278.69051796 65.14391565 278.66932274 70.46838091 278.63526917 75.79290771 C278.60259164 80.93465595 278.58471676 86.07626504 278.5769558 91.21810913 C278.57142735 93.17644439 278.56063169 95.13477233 278.54439735 97.0930481 C278.52251154 99.84326432 278.51962525 102.59291091 278.52101135 105.34320068 C278.51022552 106.14665421 278.4994397 106.95010773 278.48832703 107.77790833 C278.52237291 114.05095528 279.610647 119.66644325 283.69361877 124.66351318 C284.34717346 125.20234131 285.00072815 125.74116943 285.67408752 126.29632568 C286.31990784 126.85062256 286.96572815 127.40491943 287.63111877 127.97601318 C293.10177959 131.52092474 298.41931804 131.7041995 304.71266174 131.64837646 C305.58160568 131.64866852 306.45054962 131.64896057 307.3458252 131.64926147 C310.20274527 131.64787406 313.05940081 131.63234061 315.91627502 131.61663818 C317.90310015 131.61290596 319.88992713 131.61005998 321.87675476 131.60806274 C327.09475323 131.60044277 332.31263957 131.58080831 337.53059387 131.55865479 C342.85965966 131.53816111 348.18874365 131.5290535 353.51783752 131.51898193 C363.96580333 131.49756089 374.41368609 131.46344469 384.86158752 131.42132568 C381.35863506 127.91443289 381.35863506 127.91443289 377.83424377 124.42913818 C374.70059873 121.34035105 371.66233695 118.25482976 368.86158752 114.85882568 C366.79501084 112.38637402 364.6276745 110.27876658 362.17063904 108.19593811 C357.90044373 104.50115545 353.8978786 100.59194313 349.91676331 96.59002686 C349.16778275 95.84119232 348.41880219 95.09235779 347.64712524 94.3208313 C345.19800263 91.87101794 342.75243126 89.41769245 340.30690002 86.96429443 C338.5969854 85.25251228 336.88684804 83.5409526 335.17649841 81.8296051 C330.69363652 77.34294134 326.21378604 72.85328259 321.73457336 68.36297607 C317.16414955 63.78229944 312.59087408 59.2044718 308.01783752 54.62640381 C299.4386195 46.03696152 290.8621778 37.44475365 282.28787422 28.85040569 C281.14643129 27.7067273 280.00414874 26.5638869 278.86158752 25.42132568 Z M39.48658752 186.67132568 C37.65838134 189.76521307 37.01102803 191.83475364 36.86158752 195.42132568 C37.82554924 198.87552185 39.05074192 201.1726492 41.86158752 203.42132568 C44.81990611 204.40743188 46.73651674 204.54844178 49.82109547 204.55275345 C50.85097011 204.55659459 51.88084476 204.56043574 52.94192773 204.56439328 C54.07692624 204.5635268 55.21192474 204.56266032 56.38131714 204.56176758 C57.58429496 204.5647387 58.78727279 204.56770982 60.02670449 204.57077098 C63.37182278 204.57795911 66.71688973 204.5806309 70.06201208 204.58136845 C73.66743063 204.58321789 77.27283801 204.59076465 80.87825012 204.59750366 C88.76458592 204.6110919 96.65091664 204.61711242 104.5372622 204.62151432 C109.46026928 204.62427583 114.38327439 204.62851301 119.30628014 204.63301849 C132.93311216 204.64521164 146.55994261 204.65551097 160.18677998 204.65889359 C161.49527585 204.65922293 161.49527585 204.65922293 162.83020599 204.65955894 C163.70463859 204.65977721 164.57907119 204.65999549 165.48000175 204.66022038 C167.2519724 204.66066385 169.02394305 204.66111042 170.7959137 204.66156006 C172.11435518 204.6618922 172.11435518 204.6618922 173.45943185 204.66223106 C187.70420241 204.66617972 201.94892183 204.68363561 216.19367263 204.70691958 C230.81389906 204.73062467 245.43409982 204.74309505 260.05434579 204.7442615 C268.26496076 204.74517872 276.4755091 204.75094283 284.68610573 204.76908112 C291.67716407 204.78447072 298.6681352 204.78960932 305.65920726 204.78134301 C309.22653156 204.77743248 312.79368015 204.77838559 316.36098289 204.79240036 C320.22770041 204.80745261 324.09416977 204.79928469 327.96090698 204.78881836 C329.08921332 204.79687476 330.21751966 204.80493117 331.3800171 204.81323171 C336.91075495 204.77810906 341.16475184 204.70454734 345.86158752 201.42132568 C348.54064482 197.40273974 348.55769446 194.14490847 347.86158752 189.42132568 C346.06765085 186.551027 344.87895476 184.9300093 341.86158752 183.42132568 C334.90080517 182.42883222 328.06748241 182.27748707 321.04466248 182.28761292 C319.88218274 182.28534736 318.71970301 182.2830818 317.52199662 182.28074759 C314.31778724 182.27553643 311.11361342 182.27475856 307.90940118 182.27594197 C304.44517639 182.27614695 300.98095981 182.27061814 297.51673889 182.2658844 C290.73975066 182.25759991 283.96277112 182.25483061 277.18577825 182.25427202 C271.67737493 182.25379606 266.16897447 182.25173731 260.66057205 182.2485714 C245.03334551 182.23977282 229.40612583 182.23515107 213.77889679 182.23590187 C212.93751774 182.23594183 212.09613869 182.23598178 211.22926331 182.23602295 C210.3868544 182.23606383 209.54444549 182.23610471 208.67650904 182.23614683 C195.01156142 182.23655365 181.3466413 182.22697309 167.68170165 182.21288458 C153.64097688 182.19852306 139.60026554 182.19161419 125.55953324 182.19247836 C117.68042788 182.19281028 109.8013514 182.19006491 101.92225266 182.17930031 C95.21757483 182.17019853 88.51293901 182.16801761 81.80825768 182.17480973 C78.38864857 182.17807583 74.96912005 182.17812824 71.54951859 182.16945648 C67.84112178 182.16176197 64.13293738 182.16636464 60.42454529 182.17408752 C58.80679477 182.16637218 58.80679477 182.16637218 57.15636241 182.15850097 C47.55311456 182.08019585 47.55311456 182.08019585 39.48658752 186.67132568 Z M39.61158752 242.10882568 C37.23171161 245.25366171 36.93033445 247.5027511 36.86158752 251.42132568 C38.47070687 255.14770733 40.33312388 257.44222626 43.86158752 259.42132568 C46.95650671 259.87567042 50.03114432 259.8344008 53.15454102 259.81573486 C54.10589859 259.82182597 55.05725616 259.82791707 56.03744274 259.83419275 C59.23342071 259.85087573 62.42900256 259.84603934 65.62501526 259.84124756 C67.91303422 259.84858477 70.20104947 259.85716998 72.48905945 259.86691284 C78.71006693 259.88917338 84.93094213 259.89205726 91.15198398 259.89016533 C96.34109081 259.89004584 101.53016939 259.89860093 106.71926838 259.90694284 C119.65878902 259.92729442 132.5982235 259.92832098 145.53775329 259.92113572 C156.77627113 259.9155595 168.01456107 259.93638861 179.25302564 259.96949619 C190.79176107 260.00322463 202.33035938 260.01792786 213.86914784 260.01377916 C220.34770395 260.01170806 226.8260331 260.01724689 233.30454826 260.04167175 C239.39575216 260.06387691 245.48648056 260.06211263 251.57768631 260.04174423 C253.81543532 260.03832323 256.05321596 260.04346984 258.29092216 260.05772781 C261.34172474 260.07582789 264.39089831 260.06323937 267.44165039 260.04278564 C268.33094866 260.05530349 269.22024692 260.06782134 270.13649362 260.08071852 C274.57319807 260.01677572 276.3054982 259.86488226 279.8878336 257.00748444 C282.78779231 253.20774349 283.23709834 251.20908852 282.86158752 246.42132568 C281.19396431 242.92725799 280.12152731 241.59461887 276.86158752 239.42132568 C266.53232463 237.25655373 255.09234521 238.27313851 244.58863831 238.27606201 C242.43751976 238.27306639 240.28640174 238.26966294 238.13528442 238.2658844 C232.31966698 238.25708669 226.50406426 238.25470823 220.6884408 238.25406861 C217.05388264 238.25335634 213.4193282 238.25121879 209.78477097 238.2485714 C197.1030173 238.23933591 184.42127413 238.23523474 171.73951721 238.23602295 C159.91794536 238.23662506 148.09641894 238.22604263 136.27485859 238.21027929 C126.11752804 238.1972175 115.96021238 238.19183839 105.80287349 238.19247836 C99.73920838 238.19273351 93.67558378 238.18987221 87.61192703 238.17930031 C81.9171974 238.16964091 76.22254725 238.16952527 70.52781487 238.17681694 C68.43680518 238.17786508 66.3457906 238.17548634 64.25478935 238.16945648 C61.40407417 238.16176687 58.55363564 238.16636107 55.70292664 238.17408752 C54.87287648 238.16894396 54.04282633 238.1638004 53.18762314 238.15850097 C47.83034104 238.19066274 44.0083045 238.81128795 39.61158752 242.10882568 Z M40.86158752 294.42132568 C40.86158752 295.08132568 40.86158752 295.74132568 40.86158752 296.42132568 C40.20158752 296.42132568 39.54158752 296.42132568 38.86158752 296.42132568 C36.82468625 300.49512822 36.58282984 303.03701362 37.86158752 307.42132568 C40.1799816 311.34476182 42.20421011 312.89410584 46.59533691 314.03697777 C51.60163417 314.88602769 56.69104331 314.70637199 61.75416565 314.69598389 C63.04116867 314.70109482 64.32817169 314.70620575 65.6541748 314.71147156 C69.16861018 314.72480864 72.68293768 314.72544631 76.19739342 314.72290826 C79.13723689 314.72183523 82.07705884 314.72673022 85.01689768 314.73151368 C91.95423921 314.74258993 98.89152659 314.74305648 105.82887268 314.73699951 C112.97429657 314.73095666 120.1195237 314.74328285 127.26491404 314.76456958 C133.41204787 314.7822058 139.55911918 314.78818388 145.70627737 314.78493184 C149.37236482 314.78312251 153.0383118 314.78572023 156.70437622 314.79964638 C160.79271663 314.81459726 164.8806581 314.805237 168.9690094 314.79364014 C170.17649338 314.80128387 171.38397736 314.80892761 172.62805176 314.81680298 C178.79774861 314.77811479 183.4612537 314.52374289 188.86158752 311.42132568 C191.3482164 308.53362763 191.82152849 306.70173889 192.36158752 302.92132568 C192.12784599 299.32106298 192.12784599 299.32106298 189.79908752 296.60882568 C182.92408204 291.48914075 175.29861887 292.13470126 167.06080627 292.16253662 C165.1449321 292.15727966 165.1449321 292.15727966 163.19035339 292.1519165 C159.70276684 292.14283507 156.21529923 292.14631913 152.72771072 292.15267467 C149.06880129 292.15775673 145.40990168 292.15303711 141.75099182 292.14990234 C135.60782554 292.14626911 129.46470742 292.15104489 123.32154846 292.1605835 C116.23069364 292.17146682 109.13995386 292.16794079 102.04910183 292.15693069 C95.94867948 292.14783946 89.84829166 292.1465815 83.74786472 292.15180802 C80.10975828 292.15491764 76.47170582 292.15536488 72.83360291 292.14873505 C68.77645614 292.14185732 64.71950608 292.15140426 60.66236877 292.16253662 C58.86516891 292.15646393 58.86516891 292.15646393 57.03166199 292.15026855 C51.25277264 292.1796251 46.30989821 292.43603497 40.86158752 294.42132568 Z M167.72389221 369.82952881 C119.26112914 396.78084365 75.29056081 408.4326382 19.86158752 405.42132568 C44.35340784 424.43850381 76.98803823 428.31706526 106.97389221 424.60101318 C141.02699829 419.74550773 172.00283224 407.32415102 202.29908752 391.42132568 C240.97656504 371.12269398 284.16166546 354.84455213 327.86158752 368.42132568 C333.26922165 370.23501441 338.57292473 372.28880036 343.86158752 374.42132568 C344.83611877 374.81062256 345.81065002 375.19991943 346.81471252 375.60101318 C347.49018127 375.87171631 348.16565002 376.14241943 348.86158752 376.42132568 C336.63777878 357.95666943 315.92100901 346.35356989 294.74830627 341.19866943 C248.67452759 331.9839137 207.35544057 347.49096292 167.72389221 369.82952881 Z M199.38502502 413.81976318 C165.45721848 431.80803542 127.74185777 438.71246569 89.86158752 441.42132568 C89.86158752 441.75132568 89.86158752 442.08132568 89.86158752 442.42132568 C143.6339767 453.40605104 198.73506806 450.35964522 245.79908752 419.67132568 C250.02204774 416.77129008 254.15653644 413.75483944 258.29420471 410.73529053 C270.93731649 401.52068378 283.49939241 393.11583782 297.84986877 386.79632568 C300.94911755 385.47783236 300.94911755 385.47783236 303.86158752 383.42132568 C283.55654595 363.11628411 218.04577874 403.7964259 199.38502502 413.81976318 Z " fill="#009DB1" transform="translate(320.13841247558594,235.57867431640625)"/>
<path d="M0 0 C3.60286506 1.52524036 5.94299983 3.67485437 8.6875 6.4375 C9.47511719 7.21996094 10.26273438 8.00242187 11.07421875 8.80859375 C14.1597382 12.31970209 14.12559091 15.22942929 14.12863445 19.72920322 C14.1318589 20.93078085 14.13508335 22.13235849 14.1384055 23.37034756 C14.13693423 24.7105673 14.1353665 26.05078694 14.13371277 27.39100647 C14.13558005 28.80952545 14.13788042 30.22804392 14.14057809 31.64656156 C14.14671309 35.5540262 14.14656049 39.46146949 14.14538372 43.36893785 C14.14518013 47.57975304 14.15069457 51.79056131 14.15544128 56.00137329 C14.16375857 64.25608312 14.16649664 72.51078581 14.16705366 80.76549948 C14.16752848 87.47634698 14.16958149 94.18719211 14.17275429 100.89803886 C14.18156513 119.92110629 14.18617319 138.94416806 14.18542381 157.96723754 C14.18536388 159.50652258 14.18536388 159.50652258 14.18530273 161.0769043 C14.18526185 162.10434678 14.18522097 163.13178927 14.18517885 164.19036638 C14.18477264 180.8315021 14.19433478 197.47261516 14.2084411 214.11374433 C14.22280829 231.19741668 14.22971104 248.28107798 14.22884732 265.36475652 C14.22851539 274.95711468 14.23126069 284.54944912 14.24202538 294.14180183 C14.25113505 302.31191302 14.25330191 310.48198973 14.24651595 318.65210379 C14.24325263 322.81936096 14.2431872 326.98655201 14.2518692 331.15380287 C14.25974382 334.97290297 14.25829295 338.79188463 14.24958507 342.61098187 C14.247329 344.63847433 14.25487136 346.66597049 14.26282471 348.6934486 C14.22184669 359.56288023 13.73993753 370.82622998 5.984375 379.16796875 C-2.24455246 386.85110001 -9.71545991 389.12207574 -20.95730209 389.12863445 C-21.63657867 389.13038749 -22.31585524 389.13214053 -23.01571596 389.13394669 C-25.2904254 389.13859623 -27.56507063 389.13614388 -29.83978271 389.13371277 C-31.4877548 389.13558127 -33.13572643 389.13788213 -34.78369737 389.14057809 C-39.31146972 389.14669771 -43.83922361 389.1465623 -48.36699915 389.14538372 C-53.25056906 389.14517975 -58.13413304 389.1506981 -63.0177002 389.15544128 C-72.58546296 389.16374939 -82.15321956 389.1664962 -91.72098562 389.16705366 C-99.4982183 389.16752877 -107.27544894 389.16958324 -115.05268097 389.17275429 C-137.10158784 389.18156146 -159.15048984 389.18617359 -181.19939849 389.18542381 C-182.38817706 389.18538386 -183.57695564 389.1853439 -184.80175781 389.18530273 C-185.99198761 389.18526185 -187.1822174 389.18522097 -188.40851477 389.18517885 C-207.697501 389.18477241 -226.98646771 389.19434133 -246.27544829 389.2084411 C-266.08028525 389.22280373 -285.88511269 389.22971134 -305.689955 389.22884732 C-316.809219 389.22851531 -327.92846255 389.23126451 -339.04772186 389.24202538 C-348.51515096 389.2511289 -357.98255032 389.25330685 -367.4499819 389.24651595 C-372.27951875 389.24324995 -377.10899854 389.24319698 -381.93852997 389.2518692 C-386.36259317 389.25973157 -390.78655402 389.25830542 -395.21061471 389.24958507 C-396.80818056 389.2480495 -398.40575404 389.24986838 -400.00331089 389.25544515 C-421.98570086 389.32707827 -421.98570086 389.32707827 -430 383 C-427 383 -427 383 -423.33969116 384.47619057 C-416.28779819 386.88188596 -408.92160024 386.41401413 -401.56494141 386.38095093 C-399.8889161 386.38441044 -398.21289307 386.38917697 -396.53687477 386.39513266 C-391.94548319 386.40763201 -387.35427917 386.40147711 -382.762887 386.39217401 C-377.80575872 386.38537951 -372.84866243 386.39586674 -367.89154053 386.40411377 C-358.18613826 386.41744899 -348.48080562 386.41457429 -338.77540064 386.40587585 C-330.88714686 386.39909889 -322.99891259 386.39818264 -315.11065674 386.4014473 C-313.98767799 386.401907 -312.86469924 386.40236669 -311.70769083 386.40284032 C-309.42633422 386.40379951 -307.1449776 386.40477215 -304.863621 386.4057581 C-283.47464233 386.41431138 -262.08570224 386.40447882 -240.6967299 386.388357 C-222.34662874 386.37495388 -203.99658451 386.37728199 -185.64648438 386.39111328 C-164.33369446 386.40717018 -143.02093835 386.41348741 -121.70814323 386.40427649 C-119.43520992 386.40332085 -117.16227659 386.40237774 -114.88934326 386.4014473 C-113.77103579 386.40098447 -112.65272832 386.40052164 -111.50053275 386.40004479 C-103.62235618 386.39745524 -95.74420107 386.40182517 -87.86602783 386.40888596 C-78.26431069 386.41730235 -68.66266711 386.41501783 -59.06095839 386.39904372 C-54.16264516 386.39116294 -49.26445457 386.3880662 -44.36614227 386.39799118 C-39.88051947 386.40694247 -35.39513279 386.401998 -30.90953135 386.38605852 C-29.28852278 386.38271258 -27.66749419 386.38440061 -26.04649854 386.39168589 C-15.27774659 386.43636449 -5.71581431 386.16633621 3 379 C11.17759463 370.01837328 11.29533458 361.62120268 11.26069641 349.9045105 C11.26371876 348.45835044 11.26760867 347.01219198 11.27228898 345.56603634 C11.28256644 341.60092638 11.28038783 337.63590686 11.27610838 333.67078948 C11.27364079 329.39128505 11.28265559 325.11180237 11.29014587 320.83230591 C11.3028927 312.45281369 11.30468669 304.07335352 11.30234561 295.69385324 C11.30056274 288.88484837 11.30231141 282.07585323 11.30657005 275.26684952 C11.30746284 273.81337293 11.30746284 273.81337293 11.30837366 272.33053318 C11.3095854 270.36210258 11.31079953 268.39367197 11.31201603 266.42524137 C11.32289092 247.96834015 11.32072896 229.5114572 11.31463119 211.05455495 C11.30945865 194.16132118 11.32072644 177.268145 11.33972941 160.37492262 C11.3590885 143.03237109 11.36736742 125.68984684 11.36360615 108.34728444 C11.36169161 98.60925915 11.36420651 88.87128293 11.37832069 79.13326645 C11.39021069 70.84598074 11.39166601 62.55877433 11.37953053 54.27148758 C11.37362585 50.04201141 11.37258618 45.81268046 11.38453293 41.58321381 C11.39533736 37.71328697 11.39235378 33.84362757 11.37827124 29.97371353 C11.3756093 28.57209357 11.37803754 27.17045301 11.38600711 25.76885317 C11.39607512 23.8665136 11.38592291 21.96409896 11.37473011 20.06176567 C11.37481263 18.47547995 11.37481263 18.47547995 11.37489682 16.85714805 C10.68000535 11.56127012 7.83402472 8.57220583 3.8125 5.3125 C1.64453125 3.55078125 1.64453125 3.55078125 0 2 C0 1.34 0 0.68 0 0 Z " fill="#038C9F" transform="translate(726,354)"/>
<path d="M0 0 C2.18979552 -0.00354837 4.37959101 -0.00711066 6.56938648 -0.01068687 C7.65279507 -0.01245127 8.73620365 -0.01421567 9.8524428 -0.01603353 C17.53378577 -0.0295835 25.21505172 -0.053796 32.89635181 -0.08246422 C42.39310986 -0.1177203 51.88976984 -0.13855979 61.38659501 -0.14140433 C66.32154244 -0.14324737 71.2562601 -0.15162786 76.1911478 -0.17692566 C80.76962251 -0.20012794 85.3477262 -0.20451157 89.92624462 -0.19427013 C91.59303758 -0.19379619 93.25984907 -0.20010798 94.92658532 -0.21386623 C110.55548775 -0.3357228 110.55548775 -0.3357228 117.27205372 4.2764225 C120.27314106 7.65264577 120.80238306 10.76322781 120.63142872 15.2764225 C120.0333966 18.60460124 118.43122327 20.7471096 116.27205372 23.2764225 C115.28205372 23.6064225 114.29205372 23.9364225 113.27205372 24.2764225 C113.27205372 23.6164225 113.27205372 22.9564225 113.27205372 22.2764225 C113.93205372 21.7607975 114.59205372 21.2451725 115.27205372 20.7139225 C117.86810842 17.54998083 117.92072108 15.47340956 117.70955372 11.46782875 C117.35758271 9.00559679 117.35758271 9.00559679 115.33455372 6.2764225 C108.75445066 1.97921234 99.68528531 3.13581351 92.0606432 3.16289711 C90.41432003 3.16267382 90.41432003 3.16267382 88.73473781 3.16244602 C85.07340985 3.163138 81.41213268 3.17096908 77.75081348 3.17876625 C75.11862575 3.18068639 72.48644076 3.18220166 69.85425282 3.1831913 C64.19208169 3.1860714 58.5299237 3.19250054 52.86775875 3.20125771 C44.66174179 3.21385411 36.45572964 3.21989864 28.24970459 3.22419107 C14.90827352 3.23125227 1.56684852 3.24204649 -11.77457714 3.25591469 C-12.57223203 3.2567425 -13.36988691 3.25757031 -14.19171316 3.25842321 C-20.65789479 3.26516236 -27.12407623 3.27208326 -33.59025764 3.27902603 C-39.22949687 3.28507593 -44.86873616 3.29105778 -50.50797558 3.29693031 C-51.30192262 3.29775844 -52.09586965 3.29858657 -52.91387569 3.29943979 C-66.19641151 3.31317059 -79.47894744 3.32290638 -92.7614885 3.32984066 C-100.93613476 3.33429917 -109.11076264 3.34229182 -117.28540034 3.35498548 C-122.89906092 3.36347231 -128.51271732 3.3683159 -134.12638389 3.37041068 C-137.35493791 3.37174302 -140.58346329 3.37524052 -143.81201077 3.38216972 C-157.48840355 3.4105776 -171.08322501 3.25595448 -184.72794628 2.2764225 C-184.72794628 1.9464225 -184.72794628 1.6164225 -184.72794628 1.2764225 C-123.1559367 0.38594707 -61.57781161 0.09920306 0 0 Z " fill="#04899B" transform="translate(549.7279462814331,415.72357749938965)"/>
<path d="M0 0 C7.55235446 -0.01659435 15.10421352 -0.05044987 22.65638149 -0.1065172 C28.71021998 -0.14989124 34.76382978 -0.16585344 40.81783295 -0.17224884 C43.36231135 -0.17893956 45.90678293 -0.19410423 48.45115662 -0.21813965 C51.98058018 -0.2497072 55.50869986 -0.24984573 59.03822708 -0.2424202 C60.07185379 -0.25882553 61.1054805 -0.27523087 62.17042923 -0.29213333 C68.80644211 -0.23497584 73.23493939 1.0188763 78.35902786 5.3410759 C80.828708 8.27382106 81.30613488 9.97743661 81.85902786 13.7785759 C81.20191718 18.46048949 79.61548769 20.00320457 76.35902786 23.3410759 C75.69902786 23.0110759 75.03902786 22.6810759 74.35902786 22.3410759 C75.01902786 21.4748259 75.67902786 20.6085759 76.35902786 19.7160759 C78.53511263 16.04393286 78.8908513 14.50702618 78.35902786 10.3410759 C77.79370013 7.68751717 77.79370013 7.68751717 76.35902786 5.3410759 C67.71809723 2.17274048 57.20498632 3.06459466 48.11366653 3.11402512 C46.63393537 3.11459081 45.15420365 3.11426958 43.67447281 3.11314011 C39.7001122 3.11257178 35.72587501 3.1242408 31.75154281 3.13828802 C27.58224363 3.15088309 23.4129409 3.15197274 19.24362564 3.15433884 C11.36752049 3.16052802 3.49147158 3.17690378 -4.38460892 3.19703782 C-13.35933872 3.21947705 -22.33407136 3.23041033 -31.30882227 3.24042869 C-49.75290398 3.26127259 -68.19693352 3.29639817 -86.64097214 3.3410759 C-86.97097214 2.6810759 -87.30097214 2.0210759 -87.64097214 1.3410759 C-58.43285689 0.34066888 -29.22393993 0.06311362 0 0 Z " fill="#0393A8" transform="translate(523.6409721374512,471.6589241027832)"/>
<path d="M0 0 C0.33 0 0.66 0 1 0 C1.64599561 13.50034379 2.07778318 26.98832431 2.2109375 40.50390625 C2.2252179 41.81708832 2.23949829 43.13027039 2.25421143 44.48324585 C2.31224484 49.89136975 2.36847088 55.29942 2.40136719 60.70776367 C2.41831016 63.42697797 2.44299688 66.14591093 2.47622681 68.86497498 C2.50685601 71.38802362 2.52653704 73.911238 2.53329468 76.4344635 C2.6383059 83.66048055 2.92679114 90.14546685 7.61328125 96.0234375 C8.45439453 96.69246094 8.45439453 96.69246094 9.3125 97.375 C9.86550781 97.83648437 10.41851563 98.29796875 10.98828125 98.7734375 C16.37820809 102.05972299 21.64466421 102.30236342 27.75927734 102.31884766 C28.61846771 102.32889328 29.47765808 102.3389389 30.36288452 102.34928894 C33.18722906 102.38004385 36.01147912 102.39713465 38.8359375 102.4140625 C40.80035205 102.43278033 42.76475862 102.45235421 44.72915649 102.4727478 C49.88787114 102.52400993 55.04661184 102.56366736 60.20544434 102.60089111 C65.47426771 102.64096786 70.74298327 102.69204346 76.01171875 102.7421875 C86.34107003 102.83887672 96.67048227 102.92330393 107 103 C107 103.66 107 104.32 107 105 C95.68173221 105.09287324 84.36355578 105.1638529 73.04498386 105.20724869 C67.7887223 105.22808149 62.53272235 105.25632035 57.27661133 105.30175781 C52.19968549 105.34536926 47.12301056 105.36916948 42.04591179 105.37950897 C40.11350495 105.38687292 38.18111111 105.40125287 36.24881172 105.42292023 C33.53219558 105.45215784 30.81660286 105.45594756 28.09985352 105.45410156 C27.30934601 105.46848267 26.5188385 105.48286377 25.70437622 105.49768066 C18.36288245 105.44405763 12.79745594 102.79459438 6.6875 98.875 C-1.85724628 89.73410863 -0.52507896 77.8885643 -0.390625 66.2109375 C-0.38315341 64.29709467 -0.37746482 62.38324412 -0.37347412 60.46939087 C-0.35829004 55.46171496 -0.31907142 50.45451207 -0.2746582 45.44702148 C-0.23354866 40.32542314 -0.21542977 35.20374746 -0.1953125 30.08203125 C-0.15256943 20.05448106 -0.08440681 10.02728005 0 0 Z " fill="#0190A3" transform="translate(597,264)"/>
<path d="M0 0 C0.99 0.33 1.98 0.66 3 1 C3 1.66 3 2.32 3 3 C3.598125 3.268125 4.19625 3.53625 4.8125 3.8125 C6.99847854 4.99917406 8.41332594 6.09599113 10 8 C10 8.66 10 9.32 10 10 C10.52924072 10.20326904 11.05848145 10.40653809 11.60375977 10.6159668 C15.0485241 12.60561214 17.56430019 15.3192585 20.33984375 18.14453125 C20.94381485 18.75133224 21.54778595 19.35813324 22.1700592 19.98332214 C24.09729535 21.92172707 26.01747166 23.86695794 27.9375 25.8125 C29.22544801 27.11048607 30.51385471 28.40801717 31.80273438 29.70507812 C34.66031087 32.58224901 37.51344368 35.46374369 40.36265564 38.34919739 C42.56829318 40.5729643 44.78444823 42.7861119 47 45 C64.33333333 62.33333333 81.66666667 79.66666667 99 97 C97.515 97.495 97.515 97.495 96 98 C94.5 96.625 94.5 96.625 93 95 C93 94.34 93 93.68 93 93 C92.360625 92.731875 91.72125 92.46375 91.0625 92.1875 C89 91 89 91 88 88 C86.68435076 87.29907967 85.3480209 86.63644471 84 86 C82.23277092 84.4844532 82.23277092 84.4844532 80.41940308 82.67337036 C79.72683411 81.98644104 79.03426514 81.29951172 78.32070923 80.59176636 C77.57147186 79.83848053 76.8222345 79.0851947 76.05029297 78.30908203 C75.25312866 77.51542236 74.45596436 76.7217627 73.63464355 75.90405273 C70.99876777 73.27698548 68.37028211 70.64266232 65.7421875 68.0078125 C63.91452824 66.18150014 62.08657215 64.35548479 60.2583313 62.52975464 C56.42693138 58.7013048 52.59908289 54.86935407 48.77392578 51.03466797 C44.35377108 46.60362925 39.92645756 42.17984151 35.49535644 37.75975144 C31.2299915 33.5045613 26.97027829 29.24376445 22.71292496 24.98055649 C20.90186583 23.16816171 19.08931575 21.35725553 17.27526474 19.54785538 C14.74228202 17.01994271 12.21578438 14.48572274 9.69091797 11.94970703 C8.93763214 11.20046967 8.18434631 10.4512323 7.40823364 9.67929077 C6.72130432 8.9867218 6.034375 8.29415283 5.32662964 7.58059692 C4.7289723 6.98218554 4.13131496 6.38377415 3.5155468 5.76722908 C1.95057479 3.94236689 0.97588077 2.18836413 0 0 Z " fill="#0291A4" transform="translate(598,259)"/>
<path d="M0 0 C-1.03898438 0.49628906 -2.07796875 0.99257813 -3.1484375 1.50390625 C-11.28336278 5.4438178 -18.72716808 9.59960832 -26 15 C-28.16230325 16.50689705 -30.32806844 18.00716971 -32.5 19.5 C-36.39131457 22.18563478 -40.26601418 24.89308306 -44.125 27.625 C-59.08485947 38.05374819 -78.46321541 50.96633006 -97 53 C-95.6805211 50.3610422 -94.65587109 50.33051263 -91.90625 49.37109375 C-91.04894287 49.06300781 -90.19163574 48.75492188 -89.30834961 48.4375 C-87.91821655 47.9425 -87.91821655 47.9425 -86.5 47.4375 C-69.22613806 41.06361987 -54.41393512 32.14567383 -39.56567383 21.31323242 C-32.95081793 16.4906991 -26.31743095 11.7802332 -19.375 7.4375 C-18.74883789 7.04449707 -18.12267578 6.65149414 -17.47753906 6.24658203 C-14.30067972 4.29178737 -11.07159107 2.43181197 -7.7890625 0.66015625 C-7.1595166 0.31734619 -6.5299707 -0.02546387 -5.88134766 -0.37866211 C-3.56115935 -1.14493245 -2.27772935 -0.77995357 0 0 Z " fill="#038FA0" transform="translate(618,624)"/>
<path d="M0 0 C0 0.66 0 1.32 0 2 C-7.29375207 5.7973617 -14.59288507 9.58388166 -21.90014648 13.35516357 C-25.08197633 14.99959518 -28.25243666 16.66188135 -31.40625 18.359375 C-46.69880343 26.48019238 -69.35648301 38.43055543 -87 37 C-84.09806982 34.09806982 -80.56954528 33.79288391 -76.6875 32.875 C-53.69322576 27.10006186 -32.38250316 16.84549514 -11.85546875 5.1640625 C-2.72750597 0 -2.72750597 0 0 0 Z " fill="#048C9D" transform="translate(551,632)"/>
<path d="M0 0 C-3.9497075 2.63313833 -7.45869981 2.46772732 -12.0625 2.625 C-13.02462402 2.66439697 -13.98674805 2.70379395 -14.97802734 2.74438477 C-22.21788703 2.9928488 -29.44819028 3.01568609 -36.69140625 2.98828125 C-37.62805618 2.98523987 -38.56470612 2.98219849 -39.52973938 2.97906494 C-44.28323836 2.96110107 -49.036069 2.92849779 -53.78930664 2.87548828 C-55.57047381 2.86339104 -57.3516424 2.85150072 -59.1328125 2.83984375 C-59.95282242 2.82633377 -60.77283234 2.81282379 -61.61769104 2.79890442 C-68.63097203 2.76846975 -72.60306855 4.37405876 -78 9 C-77.09962846 5.97147756 -76.42000593 4.32650345 -73.89550781 2.36401367 C-70.33990617 0.68904349 -67.21361712 0.52345527 -63.359375 0.48828125 C-62.23757339 0.46128647 -62.23757339 0.46128647 -61.09310913 0.43374634 C-58.6454586 0.37896392 -56.19803571 0.34530026 -53.75 0.3125 C-52.05580915 0.27962593 -50.36163569 0.24584337 -48.66748047 0.21118164 C-32.44684244 -0.09713979 -16.22271706 -0.10610552 0 0 Z " fill="#038DA1" transform="translate(435,472)"/>
<path d="M0 0 C1.53303135 -0.01662264 3.06598324 -0.0439954 4.59863281 -0.08203125 C20.00157116 -0.46040098 20.00157116 -0.46040098 25.88427734 4.03759766 C29.08294327 7.14774923 30.0923244 9.37517822 30.73413086 13.78759766 C30.07702018 18.46951125 28.49059069 20.01222633 25.23413086 23.35009766 C24.57413086 23.02009766 23.91413086 22.69009766 23.23413086 22.35009766 C23.89413086 21.48384766 24.55413086 20.61759766 25.23413086 19.72509766 C27.41021562 16.05295462 27.7659543 14.51604794 27.23413086 10.35009766 C26.65182079 7.6984857 26.65182079 7.6984857 25.23413086 5.35009766 C15.81267128 1.76880149 3.40132099 2.91596333 -6.57836914 2.72509766 C-8.25351721 2.68680856 -9.92864789 2.64775101 -11.60375977 2.60791016 C-15.65765087 2.5131341 -19.71163322 2.42868422 -23.76586914 2.35009766 C-23.76586914 2.02009766 -23.76586914 1.69009766 -23.76586914 1.35009766 C-15.85848762 0.25259988 -7.97025885 0.06316795 0 0 Z " fill="#038B9E" transform="translate(574.765869140625,471.64990234375)"/>
<path d="M0 0 C3.67114927 2.0316693 6.41723496 4.22241023 9.3125 7.25 C12.77425658 10.79786993 16.34131857 14.09512304 20.1015625 17.3203125 C22.59096719 19.5228722 24.8945103 21.88352636 27.22265625 24.25390625 C29.06593574 26.06477643 30.97822799 27.75321354 32.9375 29.4375 C35.74576347 31.85617779 38.39970593 34.35899683 41 37 C43.55990134 39.59982183 46.1677954 42.06268398 48.9375 44.4375 C53.53303205 48.38435854 57.76310351 52.67483483 62 57 C59 57 59 57 57.45703125 55.71484375 C56.91433594 55.12832031 56.37164063 54.54179687 55.8125 53.9375 C53.34518521 51.35638872 50.84270785 48.94128992 48.125 46.625 C44.20154639 43.25220655 40.5862413 39.62585167 36.98046875 35.91796875 C34.95064723 33.83682933 34.95064723 33.83682933 32 32 C32 31.34 32 30.68 32 30 C31.44441406 29.773125 30.88882813 29.54625 30.31640625 29.3125 C27.33468957 27.62302816 25.3129083 25.46497875 22.9375 23 C20.34506045 20.31789712 18.10816238 18.07210825 15 16 C15 15.34 15 14.68 15 14 C14.15695312 13.62875 14.15695312 13.62875 13.296875 13.25 C10.60907431 11.78725133 8.53594518 10.03195127 6.25 8 C5.05117188 6.948125 5.05117188 6.948125 3.828125 5.875 C2 4 2 4 2 2 C1.34 2 0.68 2 0 2 C0 1.34 0 0.68 0 0 Z " fill="#038A9C" transform="translate(664,296)"/>
<path d="M0 0 C3.48654476 1.4841373 5.64191072 3.46214052 8.25 6.1875 C11.0587808 9.06501117 13.87666256 11.82989001 16.9375 14.4375 C21.02918541 17.94349685 24.76966883 21.75461891 28.5546875 25.5859375 C31.29123479 28.28751294 34.14979366 30.79078735 37.0703125 33.2890625 C39.83970162 35.74451277 42.40035124 38.39096339 44.99609375 41.02734375 C47.5726053 43.56367578 50.29426301 45.90227257 53.03515625 48.2578125 C56.16363209 51.03176921 59.08580113 54.00383929 62 57 C58.28950571 57 57.84513504 56.25199751 55.234375 53.74609375 C54.50863281 53.05580078 53.78289063 52.36550781 53.03515625 51.65429688 C52.28105469 50.92275391 51.52695312 50.19121094 50.75 49.4375 C50.01136719 48.73302734 49.27273438 48.02855469 48.51171875 47.30273438 C45.02998702 43.97144784 41.59129628 40.60218728 38.1953125 37.18359375 C35.91534686 34.89218906 33.60179075 32.70550423 31.125 30.625 C28.1153247 28.03365795 25.28911384 25.32745217 22.5 22.5 C19.12532494 19.07901722 15.63755389 15.89225553 11.98828125 12.76953125 C9.07786647 10.17931928 6.3745491 7.39843912 3.6640625 4.6015625 C2.07577267 2.91371276 2.07577267 2.91371276 0 2 C0 1.34 0 0.68 0 0 Z " fill="#038B9D" transform="translate(602,238)"/>
<path d="M0 0 C2.44148936 0.02397737 4.88190587 0.02047875 7.32348633 0.01391602 C8.90617503 0.01948397 10.48885924 0.02658826 12.0715332 0.03540039 C12.78624283 0.03448898 13.50095245 0.03357758 14.23731995 0.03263855 C19.21545121 0.10188138 23.55480082 0.98550572 28.34887695 2.33618164 C28.34887695 2.66618164 28.34887695 2.99618164 28.34887695 3.33618164 C23.7263188 3.41073903 19.25379786 3.37691445 14.66137695 2.83618164 C2.17670925 1.51697479 -9.97890027 2.72483049 -22.39282227 4.0925293 C-26.80640446 4.56871903 -31.22885413 4.95075453 -35.65112305 5.33618164 C-32.89431147 2.57937006 -29.92680025 2.37355018 -26.2175293 1.73071289 C-25.08753258 1.53443047 -25.08753258 1.53443047 -23.93470764 1.33418274 C-15.95863223 0.06237433 -8.06141783 -0.08463215 0 0 Z " fill="#038B9E" transform="translate(584.651123046875,572.663818359375)"/>
<path d="M0 0 C7.14438468 0.43932204 12.54912175 2.15558722 19 5.1875 C19.83789062 5.56197266 20.67578125 5.93644531 21.5390625 6.32226562 C30.33217143 10.35811206 37.80289067 15.5685406 45 22 C44.67 22.66 44.34 23.32 44 24 C42.92298828 23.07380859 42.92298828 23.07380859 41.82421875 22.12890625 C29.59465965 11.98633704 15.24402398 5.35108868 0 1 C0 0.67 0 0.34 0 0 Z " fill="#038E9F" transform="translate(614,576)"/>
<path d="M0 0 C1.93842773 0.00966797 1.93842773 0.00966797 3.91601562 0.01953125 C5.27083605 0.03623923 6.62565376 0.05316908 7.98046875 0.0703125 C9.35481126 0.08035247 10.72916078 0.08947654 12.10351562 0.09765625 C15.45851192 0.12120008 18.81315074 0.15408683 22.16796875 0.1953125 C19.17168336 3.19159789 15.58303404 2.9202411 11.54296875 3.3203125 C10.74117188 3.40667969 9.939375 3.49304688 9.11328125 3.58203125 C7.1323324 3.79427577 5.15024157 3.99581181 3.16796875 4.1953125 C2.83796875 5.1853125 2.50796875 6.1753125 2.16796875 7.1953125 C-2.45203125 6.2053125 -7.07203125 5.2153125 -11.83203125 4.1953125 C-11.83203125 3.5353125 -11.83203125 2.8753125 -11.83203125 2.1953125 C-7.75182684 0.2510766 -4.49825955 -0.03963224 0 0 Z " fill="#0291A2" transform="translate(413.83203125,673.8046875)"/>
<path d="M0 0 C2.39781354 0.95912542 3.73907186 1.58663961 5.13671875 3.80078125 C6.6224252 7.58563523 6.09799201 11.14330306 5 15 C2.4375 18.0625 2.4375 18.0625 0 20 C-0.99 19.67 -1.98 19.34 -3 19 C-2.195625 18.21625 -1.39125 17.4325 -0.5625 16.625 C2.44219617 13.54701856 2.92940903 12.93533034 3.25 8.6875 C2.9886592 4.83272318 2.23869739 3.07820891 0 0 Z " fill="#028FA1" transform="translate(508,530)"/>
<path d="M0 0 C0 0.33 0 0.66 0 1 C-6.41688675 1.10349817 -12.62694402 0.74507544 -19 0 C-19 -0.33 -19 -0.66 -19 -1 C-12.39144296 -2.48692533 -6.56034424 -1.4350753 0 0 Z " fill="#0293A7" transform="translate(613,575)"/>
<path d="M0 0 C0.33 0 0.66 0 1 0 C1.15855469 0.59167969 1.31710937 1.18335938 1.48046875 1.79296875 C3.08163388 7.21569926 4.65489248 10.35950451 9 14 C6.75 13.875 6.75 13.875 4 13 C1.00319941 9.59822636 0.04377744 7.67855028 -0.25 3.125 C-0.1675 2.09375 -0.085 1.0625 0 0 Z " fill="#058FA0" transform="translate(356,482)"/>
<path d="M0 0 C0.66 0 1.32 0 2 0 C3.60178593 1.78104718 5.13381926 3.62537278 6.625 5.5 C7.85089844 7.03140625 7.85089844 7.03140625 9.1015625 8.59375 C9.72804688 9.3878125 10.35453125 10.181875 11 11 C10.67 11.66 10.34 12.32 10 13 C8.32722165 11.21371169 6.66175557 9.4214925 5 7.625 C4.28457031 6.86316406 4.28457031 6.86316406 3.5546875 6.0859375 C0 2.2265625 0 2.2265625 0 0 Z " fill="#028EA0" transform="translate(660,600)"/>
<path d="M0 0 C4.99911924 0.47610659 7.97832683 2.03162219 12 5 C10 6 10 6 7.6171875 5.22265625 C6.71226562 4.83980469 5.80734375 4.45695313 4.875 4.0625 C3.50988281 3.49208984 3.50988281 3.49208984 2.1171875 2.91015625 C1.41851563 2.60980469 0.71984375 2.30945313 0 2 C0 1.34 0 0.68 0 0 Z " fill="#018FA1" transform="translate(656,607)"/>
<path d="M0 0 C3.7952131 1.49097658 5.61042731 3.75700849 8 7 C4.21388773 6.45912682 2.44599233 4.88277668 0 2 C0 1.34 0 0.68 0 0 Z " fill="#0291A5" transform="translate(697,358)"/>
<path d="M0 0 C2 1 2 1 2 1 Z " fill="#03A5B9" transform="translate(545,664)"/>
<path d="M0 0 C2 1 2 1 2 1 Z " fill="#04A7BD" transform="translate(581,623)"/>
<path d="M0 0 C2 1 2 1 2 1 Z " fill="#00A4BC" transform="translate(588,575)"/>
<path d="M0 0 C2 1 2 1 2 1 Z " fill="#00A5BD" transform="translate(585,575)"/>
<path d="M0 0 C2 1 2 1 2 1 Z " fill="#01A5BD" transform="translate(580,575)"/>
<path d="" fill="#0291A5" transform="translate(0,0)"/>
<path d="" fill="#00A5B8" transform="translate(0,0)"/>
<path d="" fill="#03A5B6" transform="translate(0,0)"/>
<path d="" fill="#03A6BA" transform="translate(0,0)"/>
<path d="" fill="#04A4B7" transform="translate(0,0)"/>
<path d="" fill="#01A5BA" transform="translate(0,0)"/>
<path d="" fill="#01A5BC" transform="translate(0,0)"/>
<path d="" fill="#00A4BA" transform="translate(0,0)"/>
<path d="" fill="#01A3B7" transform="translate(0,0)"/>
<path d="" fill="#0790A3" transform="translate(0,0)"/>
</svg>
